<?xml version="1.0" standalone="no"?>
<!DOCTYPE svg PUBLIC "-//W3C//DTD SVG 20010904//EN"
 "http://www.w3.org/TR/2001/REC-SVG-20010904/DTD/svg10.dtd">
<svg version="1.0" xmlns="http://www.w3.org/2000/svg"
 width="300.000000pt" height="331.000000pt" viewBox="0 0 300.000000 331.000000"
 preserveAspectRatio="xMidYMid meet">
<metadata>
Created by potrace 1.10, written by Peter Selinger 2001-2011
</metadata>
<g transform="translate(0.000000,331.000000) scale(0.100000,-0.100000)"
fill="#000000" stroke="none">
<path d="M1265 3067 c-116 -62 -256 -142 -313 -178 -352 -219 -528 -421 -604
-694 -22 -80 -23 -84 -26 -927 l-3 -847 -62 -3 -62 -3 -3 -90 c-2 -76 0 -92
14 -102 14 -10 279 -13 1294 -13 1474 0 1310 -15 1310 116 0 49 -5 85 -12 92
-7 7 -36 12 -65 12 l-52 0 -3 72 -3 73 -110 0 -110 0 0 -73 0 -73 -64 3 -64 3
-1 70 -1 70 -97 3 -98 3 0 -76 0 -75 -65 0 c-36 0 -68 0 -71 0 -3 0 -6 64 -7
143 l-2 142 -85 3 -85 3 2 142 2 142 70 0 c38 0 72 3 76 7 4 4 10 154 12 333
6 353 1 407 -45 505 -29 63 -142 180 -212 222 -73 42 -183 72 -243 65 -114
-14 -298 -137 -378 -254 -70 -101 -68 -79 -71 -806 l-3 -657 -74 0 -74 0 7
648 c8 710 9 728 69 835 87 157 259 298 430 352 98 31 151 31 250 1 195 -60
375 -223 442 -400 23 -61 42 -179 48 -300 l2 -49 99 1 c54 0 103 5 108 10 6 6
8 105 5 259 -5 271 -11 310 -69 432 -42 89 -196 242 -333 332 -107 70 -311
185 -388 219 l-47 21 -108 -57 c-261 -139 -408 -238 -517 -348 -81 -81 -132
-162 -169 -266 l-31 -85 -3 -802 -3 -803 -79 0 -80 0 0 804 c0 650 3 818 14
878 43 226 175 392 453 571 157 101 495 287 522 287 22 0 307 -147 429 -221
309 -187 457 -335 530 -532 29 -77 42 -198 42 -394 l0 -163 96 0 96 0 -5 238
c-4 203 -8 248 -26 316 -73 265 -278 488 -655 713 -153 91 -489 263 -514 263
-10 0 -112 -51 -227 -113z m327 32 c46 -23 108 -53 138 -68 30 -15 66 -34 80
-43 14 -8 50 -29 80 -45 135 -73 337 -206 406 -268 91 -81 184 -179 184 -194
0 -5 4 -11 8 -13 12 -5 66 -89 95 -148 15 -30 31 -80 37 -110 6 -30 16 -66 21
-79 6 -14 10 -114 10 -229 0 -221 0 -222 -54 -222 -63 0 -64 3 -65 187 -1 160
-13 278 -33 315 -5 10 -9 23 -9 30 0 23 -83 179 -112 210 -15 17 -28 32 -28
33 0 6 -111 115 -117 115 -4 0 -13 7 -22 15 -65 60 -80 73 -83 69 -2 -2 -26
14 -53 34 -46 35 -227 142 -240 142 -3 0 -14 8 -25 18 -10 9 -63 37 -117 62
-54 24 -99 48 -101 52 -2 4 -12 8 -22 8 -10 0 -22 5 -25 10 -3 6 -24 10 -46
10 -21 0 -39 -4 -39 -10 0 -5 -5 -10 -12 -10 -13 0 -100 -40 -108 -50 -7 -8
-65 -33 -66 -28 -1 1 -10 -4 -20 -13 -11 -9 -57 -36 -104 -60 -47 -23 -87 -46
-90 -49 -3 -4 -16 -13 -29 -20 -14 -7 -30 -17 -35 -21 -6 -5 -42 -29 -79 -54
-153 -100 -263 -208 -329 -320 -25 -44 -51 -91 -56 -105 -14 -38 -33 -97 -37
-120 -2 -12 -7 -30 -10 -40 -3 -10 -6 -385 -7 -832 -1 -606 2 -819 10 -835 15
-26 62 -37 133 -31 91 9 84 -60 86 791 3 701 9 879 31 924 5 10 21 43 35 73
14 30 36 65 47 78 11 12 19 22 16 22 -9 0 130 140 161 162 105 74 182 125 208
138 17 8 51 29 78 48 26 19 47 31 47 27 0 -4 11 0 25 9 14 9 25 13 25 9 0 -5
4 -3 8 2 13 17 90 55 113 55 20 0 226 -94 239 -109 6 -8 44 -30 97 -57 23 -12
55 -32 70 -44 15 -11 46 -34 68 -51 105 -77 120 -91 191 -174 50 -58 93 -138
109 -200 5 -16 10 -37 13 -45 3 -8 7 -124 9 -257 4 -196 2 -243 -9 -244 -7 -1
-31 -3 -53 -5 -79 -7 -85 -2 -85 74 0 147 -51 313 -124 401 -81 97 -206 208
-220 194 -3 -3 -6 -1 -6 5 0 7 -4 12 -10 12 -5 0 -38 13 -72 29 -102 48 -176
63 -250 51 -78 -12 -84 -13 -133 -34 -148 -63 -258 -149 -380 -299 -18 -22
-65 -124 -65 -140 0 -10 -4 -17 -8 -17 -4 0 -8 -8 -9 -17 -1 -10 -5 -31 -9
-48 -4 -16 -9 -319 -11 -672 l-4 -643 25 -25 c33 -33 120 -36 159 -5 l26 21 3
653 c2 461 6 657 14 667 6 8 11 21 11 31 0 19 61 118 74 118 5 0 9 6 10 13 0
16 106 104 150 125 19 9 36 19 39 22 10 10 62 30 107 40 39 9 58 7 122 -12 42
-12 78 -26 79 -30 2 -4 8 -8 13 -8 18 0 116 -78 153 -121 49 -58 84 -119 91
-159 3 -18 8 -36 10 -40 6 -10 7 -671 1 -677 -3 -3 -30 -6 -60 -7 -30 0 -53
-3 -51 -5 2 -2 -6 -11 -18 -21 -19 -16 -22 -28 -24 -136 -3 -126 7 -180 35
-188 9 -3 39 -8 66 -10 27 -3 54 -10 59 -15 7 -7 10 -50 8 -107 -3 -108 8
-146 45 -163 54 -24 146 -3 158 36 3 10 7 35 10 55 2 21 7 42 11 48 7 12 103
11 110 -1 3 -4 6 -28 7 -53 1 -38 7 -51 30 -71 24 -20 37 -24 75 -20 62 5 97
40 96 91 -2 53 15 66 84 62 53 -3 58 -5 61 -28 9 -68 23 -100 53 -115 16 -9
35 -15 42 -14 6 1 20 -1 30 -6 15 -6 16 -10 5 -16 -7 -5 -8 -9 -3 -9 11 0 8
-90 -4 -103 -4 -4 -572 -8 -1262 -8 -1396 0 -1277 -6 -1277 69 0 54 12 69 60
75 23 3 48 13 55 23 10 14 13 125 14 503 2 699 7 1098 14 1161 15 129 79 292
158 399 73 99 247 257 358 326 9 6 27 17 40 26 53 35 246 148 279 163 19 9 55
28 80 42 54 32 138 74 145 74 3 -1 13 6 21 15 24 24 56 18 146 -26z"/>
<path d="M1224 1161 c-41 -25 -58 -68 -52 -137 4 -41 11 -61 29 -79 34 -34 91
-38 132 -11 31 21 32 24 35 101 2 71 0 83 -21 108 -29 37 -80 45 -123 18z m96
-31 c18 -18 20 -31 18 -98 l-3 -77 -39 -3 c-22 -2 -50 -1 -63 2 -22 6 -23 11
-23 81 0 62 4 79 20 95 26 26 64 26 90 0z"/>
<path d="M2452 1318 l3 -143 106 -3 c82 -2 109 1 118 12 8 9 11 54 9 142 l-3
129 -118 3 -118 3 3 -143z m208 9 c0 -56 -4 -107 -8 -112 -9 -13 -142 -19
-160 -7 -9 6 -12 36 -10 112 3 120 0 117 113 112 l65 -4 0 -101z"/>
<path d="M2108 1159 c-2 -56 0 -105 3 -110 3 -6 53 -8 110 -7 l104 3 5 91 c7
134 16 124 -110 124 l-109 0 -3 -101z m199 23 c3 -22 2 -57 -1 -76 l-7 -36
-74 0 c-88 0 -92 4 -85 92 l5 63 70 5 c39 3 74 2 78 -1 5 -4 11 -25 14 -47z"/>
<path d="M2344 1017 c-2 -7 -3 -69 -2 -138 l3 -124 119 -3 c78 -2 123 1 132 9
10 9 14 40 14 124 0 63 -3 120 -6 129 -5 13 -26 16 -130 16 -93 0 -126 -3
-130 -13z m222 -21 c16 -6 19 -183 3 -202 -15 -18 -184 -20 -195 -3 -8 13 -13
153 -6 186 2 13 13 23 25 25 30 4 158 0 173 -6z"/>
<path d="M2047 894 c-4 -4 -7 -47 -7 -96 l0 -89 93 3 92 3 0 90 0 90 -85 3
c-47 1 -89 0 -93 -4z m151 -68 c2 -22 1 -50 -3 -63 -5 -22 -10 -24 -53 -22
-71 4 -72 5 -72 69 l0 58 63 -2 62 -1 3 -39z"/>
</g>
</svg>
